<svg width="24" height="24" viewBox="0 0 24 24" fill="none" xmlns="http://www.w3.org/2000/svg">
<path fill-rule="evenodd" clip-rule="evenodd" d="M9 8C9 6.34315 10.3431 5 12 5C13.6569 5 15 6.34315 15 8H9ZM7 10C7 10.5523 7.44772 11 8 11C8.55228 11 9 10.5523 9 10H15C15 10.5523 15.4477 11 16 11C16.5523 11 17 10.5523 17 10H19V18C19 19.1046 18.1046 20 17 20H7C5.89543 20 5 19.1046 5 18V10H7ZM7 8C7 5.23858 9.23858 3 12 3C14.7614 3 17 5.23858 17 8H19C20.1046 8 21 8.89543 21 10V18C21 20.2091 19.2091 22 17 22H7C4.79086 22 3 20.2091 3 18V10C3 8.89543 3.89543 8 5 8H7Z" fill="#0F0F0F"/>
</svg>
