<svg width="17" height="16" viewBox="0 0 17 16" fill="none" xmlns="http://www.w3.org/2000/svg">
    <path d="M8.00173 0.560558C8.26692 0.262214 8.73308 0.262215 8.99827 0.560559L10.144 1.84955C10.3043 2.02984 10.5495 2.1095 10.7851 2.05784L12.4697 1.68849C12.8596 1.603 13.2367 1.877 13.2759 2.27424L13.4452 3.99052C13.4689 4.23058 13.6204 4.43913 13.8414 4.53583L15.4214 5.2272C15.787 5.38722 15.9311 5.83056 15.7293 6.17497L14.8575 7.66298C14.7355 7.87111 14.7355 8.12889 14.8575 8.33702L15.7293 9.82503C15.9311 10.1694 15.787 10.6128 15.4214 10.7728L13.8414 11.4642C13.6204 11.5609 13.4689 11.7694 13.4452 12.0095L13.2759 13.7258C13.2367 14.123 12.8596 14.397 12.4697 14.3115L10.7851 13.9422C10.5495 13.8905 10.3043 13.9702 10.144 14.1505L8.99827 15.4394C8.73308 15.7378 8.26692 15.7378 8.00173 15.4394L6.85596 14.1505C6.6957 13.9702 6.45054 13.8905 6.21491 13.9422L4.53032 14.3115C4.14041 14.397 3.76328 14.123 3.72409 13.7258L3.5548 12.0095C3.53112 11.7694 3.3796 11.5609 3.15861 11.4642L1.57865 10.7728C1.21295 10.6128 1.0689 10.1694 1.2707 9.82503L2.14254 8.33702C2.26448 8.12889 2.26448 7.87111 2.14254 7.66298L1.2707 6.17497C1.0689 5.83056 1.21295 5.38722 1.57865 5.2272L3.15861 4.53583C3.3796 4.43913 3.53112 4.23058 3.5548 3.99052L3.72409 2.27424C3.76328 1.877 4.14041 1.603 4.53032 1.68849L6.21491 2.05784C6.45054 2.1095 6.6957 2.02984 6.85596 1.84955L8.00173 0.560558Z" fill="#337566"/>
    <path d="M5.33325 8.10526L7.26182 10L11.3333 6" stroke="#F5F5F5" stroke-linecap="round"/>
</svg>
